<?xml version="1.0" encoding="UTF-8" standalone="no"?>
<svg width="263px" height="176px" viewBox="0 0 263 176" version="1.1" xmlns="http://www.w3.org/2000/svg" xmlns:xlink="http://www.w3.org/1999/xlink" xmlns:sketch="http://www.bohemiancoding.com/sketch/ns">
    <!-- Generator: Sketch 3.0.4 (8054) - http://www.bohemiancoding.com/sketch -->
    <title>img_emails</title>
    <desc>Created with Sketch.</desc>
    <defs></defs>
    <g id="Page-1" stroke="none" stroke-width="1" fill="none" fill-rule="evenodd" sketch:type="MSPage">
        <g id="A4" sketch:type="MSArtboardGroup" transform="translate(-1468.000000, -1619.000000)">
            <g id="Group" sketch:type="MSLayerGroup" transform="translate(1468.000000, 1619.000000)">
                <g id="Imported-Layers" transform="translate(61.000000, 36.000000)" sketch:type="MSShapeGroup">
                    <path d="M5.11079167,52.7512397 L5.11079167,17.0088595 C5.11079167,14.3609917 7.25554167,12.2154711 9.90245833,12.2154711 L103.5,12.2154711 C106.146917,12.2154711 108.291667,14.3609917 108.291667,17.0088595 L108.291667,53.0244628" id="Stroke-1" stroke="#3CADF9" stroke-width="2"></path>
                    <path d="M33.8972083,34.7002975 L33.8972083,34.6993388 L31.9949167,32.8040331 L31.9949167,26.6934215 L31.9949167,23.5278678 C31.9949167,21.1407603 27.1965417,21.1407603 27.1965417,21.1407603 C27.1965417,21.1407603 22.1882917,21.1407603 22.1882917,23.5278678 L22.1882917,26.6934215 L22.1882917,32.8040331 L20.286,34.6993388 L20.286,34.7002975 C17.4455,36.7921322 15.6007083,40.1609256 15.6007083,43.961124 L38.5825,43.961124 C38.5825,40.1609256 36.7386667,36.7921322 33.8972083,34.7002975" id="Fill-2" fill="#3CADF9"></path>
                    <path d="M46.4791667,24.6696529 L98.2291667,24.6696529 M46.4791667,33.8173554 L98.2291667,33.8173554 M46.4791667,42.9640992 L98.2291667,42.9640992 M15.6007083,52.1118017 L98.2291667,52.1118017 M30.454875,61.2595041 L83.375,61.2595041" id="Stroke-3" stroke="#3CADF9" stroke-width="2"></path>
                    <path d="M109.889208,113.990612 L5.11079167,113.990612 C2.463875,113.990612 0.319125,111.845091 0.319125,109.198182 L0.319125,57.6596694 C0.319125,55.0127603 2.463875,52.866281 5.11079167,52.866281 L109.889208,113.990612 L109.889208,113.990612 Z M2.55875,113.990612 L107.337167,113.990612 C109.984083,113.990612 112.128833,111.845091 112.128833,109.198182 L112.128833,57.6596694 C112.128833,55.0127603 109.984083,52.866281 107.337167,52.866281 L2.55875,113.990612 L2.55875,113.990612 Z M71.5290417,12.3832397 L60.7315,1.58181818 C58.8608333,-0.289520661 55.82675,-0.290479339 53.9560833,1.58181818 L43.1585417,12.3832397 L71.5290417,12.3832397 Z" id="Stroke-4" stroke="#3CADF9" stroke-width="2" stroke-linejoin="round"></path>
                </g>
                <path d="M216.058824,66.5244877 C214.921529,66.5244877 214,67.4421107 214,68.573668 L214,90.6060451 C214,91.451127 214.514294,92.1757172 215.248059,92.488832 L214.961882,92.6552254 L261.078706,92.6552254 L260.792529,92.488832 C261.526294,92.1757172 262.040588,91.451127 262.040588,90.6060451 L262.040588,68.573668 C262.040588,67.5818648 261.332765,66.7552254 260.392294,66.5658811 L260.392294,51.1949795 C260.392294,50.0634221 259.470353,49.1457992 258.333059,49.1457992 L244.524118,49.1457992 L239.957235,44.6003074 C239.153059,43.7998975 237.849412,43.7998975 237.045647,44.6003074 L232.478765,49.1457992 L218.117647,49.1457992 C216.980353,49.1457992 216.058824,50.0634221 216.058824,51.1949795 L216.058824,66.4753074" id="Imported-Layers-2" fill="#EEEEEE" sketch:type="MSShapeGroup"></path>
                <path d="M2.05882353,149.524488 C0.921529412,149.524488 0,150.442111 0,151.573668 L0,173.606045 C0,174.451127 0.514294118,175.175717 1.24805882,175.488832 L0.961882353,175.655225 L47.0787059,175.655225 L46.7925294,175.488832 C47.5262941,175.175717 48.0405882,174.451127 48.0405882,173.606045 L48.0405882,151.573668 C48.0405882,150.581865 47.3327647,149.755225 46.3922941,149.565881 L46.3922941,134.19498 C46.3922941,133.063422 45.4703529,132.145799 44.3330588,132.145799 L30.5241176,132.145799 L25.9572353,127.600307 C25.1530588,126.799898 23.8494118,126.799898 23.0456471,127.600307 L18.4787647,132.145799 L4.11764706,132.145799 C2.98035294,132.145799 2.05882353,133.063422 2.05882353,134.19498 L2.05882353,149.475307" id="Imported-Layers-2" fill="#EEEEEE" sketch:type="MSShapeGroup"></path>
                <path d="M26.8067227,19.8215492 C25.8086891,19.8215492 25,20.6290574 25,21.6248279 L25,41.0133197 C25,41.7569918 25.4513193,42.3946311 26.0952353,42.6701721 L25.8441008,42.8165984 L66.3139664,42.8165984 L66.0628319,42.6701721 C66.7067479,42.3946311 67.1580672,41.7569918 67.1580672,41.0133197 L67.1580672,21.6248279 C67.1580672,20.752041 66.536916,20.0245984 65.711605,19.8579754 L65.711605,6.33158197 C65.711605,5.33581148 64.9025546,4.52830328 63.904521,4.52830328 L51.7864706,4.52830328 L47.7787983,0.528270492 C47.0730924,-0.176090164 45.9290756,-0.176090164 45.2237311,0.528270492 L41.2160588,4.52830328 L28.6134454,4.52830328 C27.6154118,4.52830328 26.8067227,5.33581148 26.8067227,6.33158197 L26.8067227,19.7782705" id="Imported-Layers-2" fill="#EEEEEE" sketch:type="MSShapeGroup"></path>
            </g>
        </g>
    </g>
</svg>