<?xml version="1.0" encoding="UTF-8" standalone="no"?>
<svg width="264px" height="201px" viewBox="0 0 264 201" version="1.1" xmlns="http://www.w3.org/2000/svg" xmlns:xlink="http://www.w3.org/1999/xlink" xmlns:sketch="http://www.bohemiancoding.com/sketch/ns">
    <!-- Generator: Sketch 3.0.4 (8054) - http://www.bohemiancoding.com/sketch -->
    <title>img_procurepolitico</title>
    <desc>Created with Sketch.</desc>
    <defs></defs>
    <g id="Page-1" stroke="none" stroke-width="1" fill="none" fill-rule="evenodd" sketch:type="MSPage">
        <g id="A4" sketch:type="MSArtboardGroup" transform="translate(-708.000000, -1621.000000)">
            <g id="Imported-Layers-2-+-Imported-Layers-5-+-Imported-Layers-5" sketch:type="MSLayerGroup" transform="translate(708.000000, 1621.000000)">
                <g id="Imported-Layers-2" transform="translate(52.000000, 20.000000)" sketch:type="MSShapeGroup">
                    <path d="M115.13752,85.702911 L115.138776,85.6966438 L103.203008,73.8392466 L103.203008,35.5909932 L103.203008,15.7781096 C103.203008,0.839794521 73.097944,0.84230137 73.097944,0.84230137 C73.097944,0.84230137 41.679104,0.839794521 41.679104,15.7781096 L41.679104,35.5909932 L41.679104,73.8392466 L29.743336,85.6966438 L29.744592,85.702911 C11.921952,98.8011986 0.350424,119.880041 0.350424,143.662521 L144.530432,143.662521 C144.530432,119.880041 132.96016,98.8011986 115.13752,85.702911 L115.13752,85.702911 Z M42.813272,74.2854658 L73.085384,92.7734795 L67.933272,100.92074 L42.32092,84.9395753 L42.813272,74.2854658 L42.813272,74.2854658 Z M103.35624,74.2854658 L73.085384,92.7734795 L78.23624,100.92074 L103.847336,84.9395753 L103.35624,74.2854658 L103.35624,74.2854658 Z M73.097944,0.442458904 C73.097944,0.442458904 41.679104,0.439952055 41.679104,15.3782671 L41.679104,53.294363 C41.679104,53.294363 42.796944,26.659089 53.786944,23.5255274 C64.776944,20.3919658 57.181912,33.5529247 72.441056,33.5529247 C87.698944,33.5529247 80.103912,20.3919658 91.093912,23.5255274 C102.083912,26.659089 103.203008,53.294363 103.203008,53.294363 L103.203008,15.3782671 C103.203008,0.439952055 73.097944,0.442458904 73.097944,0.442458904 L73.097944,0.442458904 Z" id="Stroke-1" stroke="#FFD00B" stroke-width="2"></path>
                    <path d="M75.778248,62.8141233 C72.159712,59.6805616 69.505784,62.3854521 69.214392,62.7038219 L67.339184,61.0367671 C68.87276,59.3057877 72.953504,57.0533836 77.424864,60.9201986 L75.778248,62.8141233" id="Fill-2" fill="#FFD00B"></path>
                    <path d="M62.261176,50.9629932 C62.261176,51.830363 61.559072,52.529774 60.691176,52.529774 C59.824536,52.529774 59.121176,51.830363 59.121176,50.9629932 C59.121176,50.0993836 59.824536,49.3962123 60.691176,49.3962123 C61.559072,49.3962123 62.261176,50.0993836 62.261176,50.9629932" id="Fill-3" fill="#FFD00B"></path>
                    <path d="M85.75968,50.9629932 C85.75968,51.830363 85.05632,52.529774 84.18968,52.529774 C83.321784,52.529774 82.61968,51.830363 82.61968,50.9629932 C82.61968,50.0993836 83.321784,49.3962123 84.18968,49.3962123 C85.05632,49.3962123 85.75968,50.0993836 85.75968,50.9629932" id="Fill-4" fill="#FFD00B"></path>
                    <path d="M50.555256,42.7116986 L94.326856,42.7116986 M89.412128,60.9628151 C89.412128,70.6542945 81.540776,78.5107603 71.829384,78.5107603 C62.117992,78.5107603 54.245384,70.6542945 54.245384,60.9628151" id="Stroke-5" stroke="#FFD00B" stroke-width="2"></path>
                    <path d="M72.441056,143.320336 C72.441056,143.320336 93.589584,111.413158 103.203008,73.4970616 L115.140032,85.3544589 C115.140032,85.3544589 111.248944,104.291199 104.968944,110.672384 L97.432944,110.672384 L101.200944,117.053568 L72.441056,143.320336 L72.441056,143.320336 Z" id="Fill-6" fill="#FFFFFF"></path>
                    <path d="M72.441056,143.320336 C72.441056,143.320336 93.589584,111.413158 103.203008,73.4970616 L115.140032,85.3544589 C115.140032,85.3544589 111.248944,104.291199 104.968944,110.672384 L97.432944,110.672384 L101.200944,117.053568 L72.441056,143.320336 L72.441056,143.320336 Z" id="Stroke-7" stroke="#FFD00B" stroke-width="2" stroke-linecap="round" stroke-linejoin="round"></path>
                    <path d="M72.441056,143.320336 C72.441056,143.320336 51.29504,111.413158 41.679104,73.4970616 L29.744592,85.3544589 C29.744592,85.3544589 33.631912,104.291199 39.911912,110.672384 L47.447912,110.672384 L43.679912,117.053568 L72.441056,143.320336 L72.441056,143.320336 Z" id="Fill-8" fill="#FFFFFF"></path>
                    <path d="M72.441056,143.320336 C72.441056,143.320336 51.29504,111.413158 41.679104,73.4970616 L29.744592,85.3544589 C29.744592,85.3544589 33.631912,104.291199 39.911912,110.672384 L47.447912,110.672384 L43.679912,117.053568 L72.441056,143.320336 L72.441056,143.320336 Z" id="Stroke-9" stroke="#FFD00B" stroke-width="2" stroke-linecap="round" stroke-linejoin="round"></path>
                    <path d="M73.085384,143.320336 L73.085384,92.7734795" id="Stroke-10" stroke="#FFD00B" stroke-width="2"></path>
                    <path d="M152.8552,131.559452 C152.8552,145.923699 141.18696,157.568014 126.7932,157.568014 C112.39944,157.568014 100.7312,145.923699 100.7312,131.559452 C100.7312,117.195205 112.39944,105.55089 126.7932,105.55089 C141.18696,105.55089 152.8552,117.195205 152.8552,131.559452 L152.8552,131.559452 Z" id="Fill-11" fill="#FFFFFF"></path>
                    <path d="M152.8552,131.559452 C152.8552,145.923699 141.18696,157.568014 126.7932,157.568014 C112.39944,157.568014 100.7312,145.923699 100.7312,131.559452 C100.7312,117.195205 112.39944,105.55089 126.7932,105.55089 C141.18696,105.55089 152.8552,117.195205 152.8552,131.559452 L152.8552,131.559452 Z" id="Stroke-12" stroke="#FFD00B" stroke-width="4"></path>
                    <path d="M82.61968,177.369616 L109.62368,150.420986" id="Stroke-13" stroke="#FFD00B" stroke-width="4"></path>
                    <path d="M82.61968,177.369616 L103.847336,156.185486" id="Stroke-14" stroke="#FFD00B" stroke-width="8"></path>
                </g>
                <path d="M247.509,74.8713077 L247.509695,74.8678462 L240.905915,68.3186154 L240.905915,47.1928462 L240.905915,36.2502308 C240.905915,27.9993077 224.249492,28 224.249492,28 C224.249492,28 206.866186,27.9993077 206.866186,36.2502308 L206.866186,47.1928462 L206.866186,68.3186154 L200.262407,74.8678462 L200.263102,74.8713077 C190.402254,82.1059231 184,93.7477692 184,106.884308 L263.771407,106.884308 C263.771407,93.7477692 257.369847,82.1059231 247.509,74.8713077 L247.509,74.8713077 Z" id="Imported-Layers-5" fill="#EEEEEE" sketch:type="MSShapeGroup"></path>
                <path d="M44.921,32.9835128 L44.9214915,32.9810769 L40.2505254,28.372359 L40.2505254,13.5060769 L40.2505254,5.80571795 C40.2505254,-0.000487179473 28.4691525,1.37150209e-11 28.4691525,1.37150209e-11 C28.4691525,1.37150209e-11 16.1736441,-0.000487179473 16.1736441,5.80571795 L16.1736441,13.5060769 L16.1736441,28.372359 L11.502678,32.9810769 L11.5031695,32.9835128 C4.52842373,38.0745385 0,46.2669487 0,55.5111795 L56.423678,55.5111795 C56.423678,46.2669487 51.8957458,38.0745385 44.921,32.9835128 L44.921,32.9835128 Z" id="Imported-Layers-5" fill="#EEEEEE" sketch:type="MSShapeGroup"></path>
            </g>
        </g>
    </g>
</svg>