<?xml version="1.0" encoding="UTF-8" standalone="no"?>
<svg width="289px" height="144px" viewBox="0 0 289 144" version="1.1" xmlns="http://www.w3.org/2000/svg" xmlns:xlink="http://www.w3.org/1999/xlink" xmlns:sketch="http://www.bohemiancoding.com/sketch/ns">
    <!-- Generator: Sketch 3.0.4 (8054) - http://www.bohemiancoding.com/sketch -->
    <title>img_vejadetalhes</title>
    <desc>Created with Sketch.</desc>
    <defs></defs>
    <g id="Page-1" stroke="none" stroke-width="1" fill="none" fill-rule="evenodd" sketch:type="MSPage">
        <g id="A4" sketch:type="MSArtboardGroup" transform="translate(-1058.000000, -1652.000000)">
            <g id="Group" sketch:type="MSLayerGroup" transform="translate(1058.890625, 1652.000000)">
                <g id="Imported-Layers-3" transform="translate(89.000000, 11.000000)" sketch:type="MSShapeGroup">
                    <path d="M58.3178095,108.640465 L58.3178095,85.9154651 C58.3178095,83.025 60.662381,80.682907 63.5559048,80.682907 L86.6045714,80.682907 L58.3178095,108.640465 L58.3178095,108.640465 Z M5.23914286,108.640465 C2.34561905,108.640465 0.00104761905,106.296279 0.00104761905,103.407907 L0.00104761905,4.73860465 C0.00104761905,1.84918605 2.34561905,-0.493953488 5.23914286,-0.493953488 L81.3664762,-0.493953488 C84.26,-0.493953488 86.6045714,1.84918605 86.6045714,4.73860465 L86.6045714,80.682907 L58.3178095,108.640465 L5.23914286,108.640465 L5.23914286,108.640465 Z" id="Stroke-1" stroke="#2ECC71" stroke-width="2" stroke-linecap="round" stroke-linejoin="round"></path>
                    <path d="M63.3788571,113.609302 C63.3788571,103.79407 78.1921905,95.8363953 96.4658095,95.8363953 C98.2195238,95.8363953 99.9397143,95.9106977 101.619048,96.0519767 L101.619048,17.7760465 C101.619048,14.8876744 99.2744762,12.5434884 96.3809524,12.5434884 L86.6045714,12.5434884 L86.6045714,80.682907 L58.3178095,108.640465 L15.0155238,108.640465 L15.0155238,116.444302 C15.0155238,119.334767 17.3600952,121.67686 20.253619,121.67686 L66.9868571,121.67686 C64.6852381,119.255233 63.3788571,116.515465 63.3788571,113.609302 L63.3788571,113.609302 Z" id="Stroke-2" stroke="#2ECC71" stroke-width="2"></path>
                    <path d="M29.722,27.3453488 L29.722,27.3443023 L27.6424762,25.2753488 L27.6424762,18.6048837 L27.6424762,15.1493023 C27.6424762,12.5434884 22.3970476,12.5434884 22.3970476,12.5434884 C22.3970476,12.5434884 16.9221905,12.5434884 16.9221905,15.1493023 L16.9221905,18.6048837 L16.9221905,25.2753488 L14.8426667,27.3443023 L14.8426667,27.3453488 C11.7375238,29.6288372 9.72085714,33.3062791 9.72085714,37.4546512 L34.8438095,37.4546512 C34.8438095,33.3062791 32.8281905,29.6288372 29.722,27.3453488" id="Fill-3" fill="#2ECC71"></path>
                    <path d="M43.3022857,16.3956977 L77.8726667,16.3956977 M43.3022857,26.3815116 L77.8726667,26.3815116 M43.3022857,36.3662791 L77.8726667,36.3662791 M9.72085714,46.352093 L77.8726667,46.352093 M9.72085714,56.337907 L77.8726667,56.337907 M9.72085714,66.3226744 L77.8726667,66.3226744 M9.72085714,76.3084884 L51.6360952,76.3084884 M9.72085714,86.2932558 L51.6360952,86.2932558 M9.72085714,96.2790698 L51.6360952,96.2790698" id="Stroke-4" stroke="#2ECC71" stroke-width="2" stroke-linecap="round" stroke-linejoin="round"></path>
                    <path d="M63.3788571,113.609302 C63.3788571,103.79407 78.1921905,95.8363953 96.4658095,95.8363953 C114.739429,95.8363953 129.552762,103.79407 129.552762,113.609302 C129.552762,123.425581 114.739429,131.383256 96.4658095,131.383256 C78.1921905,131.383256 63.3788571,123.425581 63.3788571,113.609302 L63.3788571,113.609302 Z M102.398476,113.609302 C102.398476,116.882791 99.7417143,119.536744 96.4658095,119.536744 C93.1899048,119.536744 90.5331429,116.882791 90.5331429,113.609302 C90.5331429,110.33686 93.1899048,107.68186 96.4658095,107.68186 C99.7417143,107.68186 102.398476,110.33686 102.398476,113.609302 L102.398476,113.609302 Z" id="Stroke-5" stroke="#2ECC71" stroke-width="2"></path>
                </g>
                <path d="M250.517844,8 C230.348219,8 214,16.6902857 214,27.4091429 C214,38.1291429 230.348219,46.8194286 250.517844,46.8194286 C270.686312,46.8194286 287.034531,38.1291429 287.034531,27.4091429 C287.034531,16.6902857 270.686312,8 250.517844,8 L250.517844,8 Z M250.517844,33.8822857 C246.90225,33.8822857 243.968844,30.984 243.968844,27.4091429 C243.968844,23.8354286 246.90225,20.936 250.517844,20.936 C254.132281,20.936 257.065687,23.8354286 257.065687,27.4091429 C257.065687,30.984 254.132281,33.8822857 250.517844,33.8822857 L250.517844,33.8822857 Z" id="Imported-Layers" fill="#EEEEEE" sketch:type="MSShapeGroup"></path>
                <path d="M25.6611875,86 C11.4879375,86 0,92.0832 0,99.5864 C0,107.0904 11.4879375,113.1736 25.6611875,113.1736 C39.833625,113.1736 51.3215625,107.0904 51.3215625,99.5864 C51.3215625,92.0832 39.833625,86 25.6611875,86 L25.6611875,86 Z M25.6611875,104.1176 C23.1205,104.1176 21.0591875,102.0888 21.0591875,99.5864 C21.0591875,97.0848 23.1205,95.0552 25.6611875,95.0552 C28.2010625,95.0552 30.262375,97.0848 30.262375,99.5864 C30.262375,102.0888 28.2010625,104.1176 25.6611875,104.1176 L25.6611875,104.1176 Z" id="Imported-Layers" fill="#EEEEEE" sketch:type="MSShapeGroup"></path>
                <path d="M54.2458906,0 C43.6159531,0 35,4.5624 35,10.1898 C35,15.8178 43.6159531,20.3802 54.2458906,20.3802 C64.8752188,20.3802 73.4911719,15.8178 73.4911719,10.1898 C73.4911719,4.5624 64.8752188,0 54.2458906,0 L54.2458906,0 Z M54.2458906,13.5882 C52.340375,13.5882 50.7943906,12.0666 50.7943906,10.1898 C50.7943906,8.3136 52.340375,6.7914 54.2458906,6.7914 C56.1507969,6.7914 57.6967813,8.3136 57.6967813,10.1898 C57.6967813,12.0666 56.1507969,13.5882 54.2458906,13.5882 L54.2458906,13.5882 Z" id="Imported-Layers" fill="#EEEEEE" sketch:type="MSShapeGroup"></path>
            </g>
        </g>
    </g>
</svg>