<?xml version="1.0" encoding="UTF-8" standalone="no"?>
<svg width="45px" height="44px" viewBox="0 0 45 44" version="1.1" xmlns="http://www.w3.org/2000/svg" xmlns:xlink="http://www.w3.org/1999/xlink" xmlns:sketch="http://www.bohemiancoding.com/sketch/ns">
    <!-- Generator: Sketch 3.0.4 (8054) - http://www.bohemiancoding.com/sketch -->
    <title>logo_symbol</title>
    <desc>Created with Sketch.</desc>
    <defs></defs>
    <g id="Page-1" stroke="none" stroke-width="1" fill="none" fill-rule="evenodd" sketch:type="MSPage">
        <g id="A4" sketch:type="MSArtboardGroup" transform="translate(-476.000000, -1642.000000)">
            <g id="Imported-Layers-3" sketch:type="MSLayerGroup" transform="translate(476.000000, 1643.000000)">
                <path d="M43.3481538,21.3000383 C43.3481538,33.0984863 33.9546923,42.6630492 22.3670769,42.6630492 C10.7799231,42.6630492 1.38646154,33.0984863 1.38646154,21.3000383 C1.38646154,9.50112022 10.7799231,-0.0629726776 22.3670769,-0.0629726776 C33.9546923,-0.0629726776 43.3481538,9.50112022 43.3481538,21.3000383" id="Fill-1" fill="#FFD00B" sketch:type="MSShapeGroup"></path>
                <path d="M28.062,21.3000383 C28.062,24.5031858 25.5122308,27.098694 22.3670769,27.098694 C19.2219231,27.098694 16.6723846,24.5031858 16.6723846,21.3000383 C16.6723846,18.0971257 19.2219231,15.5016175 22.3670769,15.5016175 C25.5122308,15.5016175 28.062,18.0971257 28.062,21.3000383" id="Fill-2" fill="#3DB1FF" sketch:type="MSShapeGroup"></path>
                <path d="M17.0023846,19.350235 L1.47646154,19.350235 C1.45776923,19.5614754 1.44230769,19.7738907 1.42961538,19.9872459 L16.8189231,19.9872459 C16.8683077,19.7698962 16.9296923,19.5572459 17.0023846,19.350235 M43.2576923,19.350235 L43.257,19.350235 C43.2683077,19.4768852 43.2786923,19.6037705 43.2881538,19.7311257 C43.2791538,19.6037705 43.269,19.4768852 43.2576923,19.350235" id="Fill-3" fill="#E9BF0D" sketch:type="MSShapeGroup"></path>
                <path d="M22.3670769,19.350235 L17.0023846,19.350235 C16.9296923,19.5572459 16.8683077,19.7698962 16.8189231,19.9872459 L22.3670769,19.9872459 L22.3670769,19.350235" id="Fill-4" fill="#3AA3E9" sketch:type="MSShapeGroup"></path>
                <path d="M-0.0297692308,19.350235 L44.7641538,19.350235 C43.0114615,8.36150273 33.654,-0.028431694 22.3670769,-0.028431694 C11.0806154,-0.028431694 1.72315385,8.36150273 -0.0297692308,19.350235" id="Fill-5" fill="#2ECC71" sketch:type="MSShapeGroup"></path>
                <path id="Fill-6" fill="#E9E9E9" sketch:type="MSShapeGroup" d="M22.4016923,-0.0629726776 L22.4044615,-0.0629726776 L22.4016923,-0.0629726776"></path>
                <path id="Fill-7" fill="#E9BF0D" sketch:type="MSShapeGroup" d="M22.3670769,-0.0629726776 L22.3670769,-0.028431694 C23.7683077,-0.028431694 25.1393077,0.100803279 26.4703846,0.348229508 C25.1547692,0.0827103825 23.7955385,-0.0603879781 22.4044615,-0.0629726776 L22.4016923,-0.0629726776 L22.3670769,-0.0629726776"></path>
                <path id="Fill-8" fill="#E9E9E9" sketch:type="MSShapeGroup"></path>
                <path d="M43.2881538,19.7311257 C43.2941538,19.8161858 43.2996923,19.9014809 43.3047692,19.9872459 L27.9154615,19.9872459 C28.0112308,20.4090219 28.062,20.8484208 28.062,21.3000383 C28.062,24.5031858 25.5122308,27.098694 22.3670769,27.098694 L22.3670769,42.6630492 C33.9546923,42.6630492 43.3481538,33.0984863 43.3481538,21.3000383 C43.3481538,20.7715847 43.3262308,20.2490055 43.2881538,19.7311257" id="Fill-9" fill="#E9BF0D" sketch:type="MSShapeGroup"></path>
                <path d="M27.9154615,19.9872459 L22.3670769,19.9872459 L22.3670769,27.098694 C25.5122308,27.098694 28.062,24.5031858 28.062,21.3000383 C28.062,20.8484208 28.0112308,20.4090219 27.9154615,19.9872459" id="Fill-10" fill="#3AA3E9" sketch:type="MSShapeGroup"></path>
                <path d="M43.257,19.350235 L27.732,19.350235 C27.8044615,19.5572459 27.8658462,19.7698962 27.9154615,19.9872459 L43.3047692,19.9872459 C43.2996923,19.9014809 43.2941538,19.8161858 43.2881538,19.7311257 C43.2786923,19.6037705 43.2683077,19.4768852 43.257,19.350235" id="Fill-11" fill="#D6AF0F" sketch:type="MSShapeGroup"></path>
                <path d="M27.732,19.350235 L22.3670769,19.350235 L22.3670769,19.9872459 L27.9154615,19.9872459 C27.8658462,19.7698962 27.8044615,19.5572459 27.732,19.350235" id="Fill-12" fill="#3896D5" sketch:type="MSShapeGroup"></path>
                <path d="M22.3670769,-0.028431694 L22.3670769,19.350235 L44.7641538,19.350235 C44.7625385,19.3408361 44.7609231,19.3307322 44.7593077,19.3210984 C44.7581538,19.3142842 44.757,19.3074699 44.7560769,19.3006557 C44.7556154,19.298541 44.7549231,19.2947814 44.7546923,19.2926667 C44.7535385,19.2846776 44.7523846,19.2769235 44.751,19.2689344 C44.7507692,19.2675246 44.7505385,19.2663497 44.7503077,19.2649399 C44.7489231,19.2562459 44.7473077,19.2475519 44.7459231,19.2388579 C44.7456923,19.238388 44.7459231,19.238623 44.7456923,19.237918 C43.1854615,9.75207104 35.9536154,2.22754098 26.7200769,0.400393443 C26.637,0.382535519 26.5536923,0.365382514 26.4703846,0.348229508 C25.1393077,0.100803279 23.7683077,-0.028431694 22.3670769,-0.028431694" id="Fill-13" fill="#2DBB69" sketch:type="MSShapeGroup"></path>
            </g>
        </g>
    </g>
</svg>