<?xml version="1.0" encoding="UTF-8" standalone="no"?>
<svg width="114px" height="164px" viewBox="0 0 114 164" version="1.1" xmlns="http://www.w3.org/2000/svg" xmlns:xlink="http://www.w3.org/1999/xlink" xmlns:sketch="http://www.bohemiancoding.com/sketch/ns">
    <!-- Generator: Sketch 3.0.4 (8054) - http://www.bohemiancoding.com/sketch -->
    <title>logo_todeolho</title>
    <desc>Created with Sketch.</desc>
    <defs></defs>
    <g id="Page-1" stroke="none" stroke-width="1" fill="none" fill-rule="evenodd" sketch:type="MSPage">
        <g id="A4" sketch:type="MSArtboardGroup" transform="translate(-299.000000, -1625.000000)">
            <g id="Path-143-+-Group-5" sketch:type="MSLayerGroup" transform="translate(299.000000, 1625.000000)">
                <ellipse id="Oval-18" fill-opacity="0.1" fill="#B8B8B8" sketch:type="MSShapeGroup" cx="57" cy="159.5" rx="52" ry="4.5"></ellipse>
                <path d="M33,114 L0,114 L0,0 L114,0 L114,114 L81,114 L57,162 L33,114 Z" id="Rectangle-35" fill="#EEEEEE" sketch:type="MSShapeGroup"></path>
                <g id="Group-4" transform="translate(16.000000, 19.000000)" sketch:type="MSShapeGroup">
                    <path d="M79.2473567,38.1028647 C79.2473567,59.0319208 62.1610191,75.9973465 41.0828025,75.9973465 C20.004586,75.9973465 2.91824841,59.0319208 2.91824841,38.1028647 C2.91824841,17.1724488 20.004586,0.208382838 41.0828025,0.208382838 C62.1610191,0.208382838 79.2473567,17.1724488 79.2473567,38.1028647" id="Fill-9" fill="#FFD00B"></path>
                    <path d="M51.4411465,38.1028647 C51.4411465,43.7852013 46.8042675,48.3879076 41.0828025,48.3879076 C35.3613376,48.3879076 30.7244586,43.7852013 30.7244586,38.1028647 C30.7244586,32.4205281 35.3613376,27.816462 41.0828025,27.816462 C46.8042675,27.816462 51.4411465,32.4205281 51.4411465,38.1028647" id="Fill-10" fill="#3DB1FF"></path>
                    <path d="M31.3242675,34.6436964 L3.08257962,34.6436964 C3.04971338,35.0176238 3.01958599,35.3956304 2.99630573,35.773637 L30.9914968,35.773637 C31.0805096,35.3888317 31.1914331,35.0108251 31.3242675,34.6436964 M79.0830255,34.6436964 L79.0816561,34.6436964 C79.1035669,34.877571 79.1227389,35.1128053 79.1405414,35.3466799 C79.1227389,35.1114455 79.1049363,34.877571 79.0830255,34.6436964" id="Fill-11" fill="#E9BF0D"></path>
                    <path d="M41.0828025,34.6436964 L31.3242675,34.6436964 C31.1914331,35.0108251 31.0805096,35.3888317 30.9914968,35.773637 L41.0828025,35.773637 L41.0828025,34.6436964" id="Fill-12" fill="#3AA3E9"></path>
                    <path d="M0.342356688,34.6436964 L81.8232484,34.6436964 C78.6352229,15.1518812 61.6132484,0.269570957 41.0828025,0.269570957 C20.5523567,0.269570957 3.53038217,15.1518812 0.342356688,34.6436964" id="Fill-13" fill="#2ECC71"></path>
                    <path d="M41.2101592,0.208382838 L41.2115287,0.208382838 L41.2101592,0.208382838" id="Fill-14" fill="#E9E9E9"></path>
                    <path d="M41.0828025,0.208382838 L41.0828025,0.269570957 C43.625828,0.269570957 46.1181847,0.498006601 48.5338535,0.935841584 C46.1647452,0.469452145 43.7162102,0.21790099 41.2115287,0.208382838 L41.2101592,0.208382838 L41.0828025,0.208382838" id="Fill-15" fill="#E9BF0D"></path>
                    <path d="M81.8054459,34.5389967 C81.8109236,34.5729901 81.8177707,34.6083432 81.8232484,34.6436964 C81.8177707,34.6083432 81.812293,34.5729901 81.8054459,34.5389967 M81.7890127,34.4356568 C81.7903822,34.4519736 81.793121,34.4696502 81.7972293,34.4873267 C81.793121,34.4696502 81.7903822,34.4519736 81.7890127,34.4356568 M81.7712102,34.3309571 C81.773949,34.3445545 81.7753185,34.3595116 81.7780573,34.3731089 C81.7753185,34.3595116 81.773949,34.3459142 81.7712102,34.3309571 M81.7534076,34.2330561 C81.7547771,34.2425743 81.7575159,34.2534521 81.7588854,34.2629703 C81.7575159,34.2520924 81.7561465,34.2425743 81.7534076,34.2330561 M81.7369745,34.1405941 C81.7369745,34.1446733 81.7383439,34.1501122 81.7397134,34.1541914 C81.7383439,34.1501122 81.7383439,34.1446733 81.7369745,34.1405941" id="Fill-16" fill="#E9E9E9"></path>
                    <path d="M79.1405414,35.3466799 C79.1514968,35.4880924 79.1597134,35.6308647 79.1692994,35.773637 L51.1754777,35.773637 C51.3493949,36.5228515 51.4411465,37.3019802 51.4411465,38.1028647 C51.4411465,43.7852013 46.8042675,48.3879076 41.0828025,48.3879076 L41.0828025,75.9973465 C62.1610191,75.9973465 79.2473567,59.0319208 79.2473567,38.1028647 C79.2473567,37.174165 79.2090127,36.2563432 79.1405414,35.3466799" id="Fill-17" fill="#E9BF0D"></path>
                    <path d="M51.1754777,35.773637 L41.0828025,35.773637 L41.0828025,48.3879076 C46.8042675,48.3879076 51.4411465,43.7852013 51.4411465,38.1028647 C51.4411465,37.3019802 51.3493949,36.5228515 51.1754777,35.773637" id="Fill-18" fill="#3AA3E9"></path>
                    <path d="M79.0816561,34.6436964 L50.8413376,34.6436964 C50.974172,35.0108251 51.0850955,35.3888317 51.1754777,35.773637 L79.1692994,35.773637 C79.1597134,35.6308647 79.1514968,35.4880924 79.1405414,35.3466799 C79.1227389,35.1128053 79.1035669,34.877571 79.0816561,34.6436964" id="Fill-19" fill="#D6AF0F"></path>
                    <path d="M50.8413376,34.6436964 L41.0828025,34.6436964 L41.0828025,35.773637 L51.1754777,35.773637 C51.0850955,35.3888317 50.974172,35.0108251 50.8413376,34.6436964" id="Fill-20" fill="#3896D5"></path>
                    <path d="M41.0828025,0.269570957 L41.0828025,34.6436964 L81.8232484,34.6436964 C81.8177707,34.6083432 81.8109236,34.5729901 81.8054459,34.5389967 C81.802707,34.5213201 81.7999682,34.5036436 81.7972293,34.4873267 C81.793121,34.4696502 81.7903822,34.4519736 81.7890127,34.4356568 C81.7849045,34.4125413 81.7821656,34.393505 81.7780573,34.3731089 C81.7753185,34.3595116 81.773949,34.3445545 81.7712102,34.3309571 C81.7671019,34.3092013 81.7629936,34.2847261 81.7588854,34.2629703 C81.7575159,34.2534521 81.7547771,34.2425743 81.7534076,34.2330561 C81.7492994,34.2058614 81.7438217,34.1800264 81.7397134,34.1541914 C81.7383439,34.1501122 81.7369745,34.1446733 81.7369745,34.1405941 C78.792707,17.4579934 65.6955096,4.25087789 49.000828,1.02966337 C48.8460828,0.998389439 48.6899682,0.965755776 48.5338535,0.935841584 C46.1181847,0.498006601 43.625828,0.269570957 41.0828025,0.269570957" id="Fill-21" fill="#2DBB69"></path>
                </g>
            </g>
        </g>
    </g>
</svg>