<?xml version="1.0" encoding="UTF-8" standalone="no"?>
<svg width="121px" height="46px" viewBox="0 0 121 46" version="1.1" xmlns="http://www.w3.org/2000/svg" xmlns:xlink="http://www.w3.org/1999/xlink" xmlns:sketch="http://www.bohemiancoding.com/sketch/ns">
    <!-- Generator: Sketch 3.0.4 (8054) - http://www.bohemiancoding.com/sketch -->
    <title>logo_full</title>
    <desc>Created with Sketch.</desc>
    <defs></defs>
    <g id="Page-1" stroke="none" stroke-width="1" fill="none" fill-rule="evenodd" sketch:type="MSPage">
        <g id="A4" sketch:type="MSArtboardGroup" transform="translate(-476.000000, -1743.000000)">
            <g id="Imported-Layers-3" sketch:type="MSLayerGroup" transform="translate(476.000000, 1744.000000)">
                <path d="M55.6114459,2.35650743 L55.6114459,6.38421535 L59.0302739,6.38421535 L59.0302739,7.14294802 L55.6114459,7.14294802 L55.6114459,17.4592649 C55.6114459,18.709797 55.8149108,19.5878465 56.2226115,20.0934134 C56.6303121,20.599745 57.1813631,20.8529109 57.876535,20.8529109 C58.1362611,20.8529109 58.3636178,20.8437327 58.5570637,20.8246114 C58.752051,20.806255 59.0210255,20.7741312 59.3632166,20.7282401 L59.5027134,21.403604 C59.2622548,21.4777946 59.0187134,21.5275099 58.7736306,21.5558094 C58.5270064,21.5833441 58.2426178,21.5971114 57.9181529,21.5971114 C56.8985159,21.5971114 56.1324395,21.2774035 55.6183822,20.6379876 C55.1043248,19.9993366 54.8469108,18.9400173 54.8469108,17.4592649 L54.8469108,7.14294802 L52.0677643,7.14294802 L52.0677643,6.38421535 L54.8469108,6.38421535 L54.8469108,2.35650743 L55.6114459,2.35650743" id="Fill-1" fill="#3DB1FF" sketch:type="MSShapeGroup"></path>
                <path d="M60.0537643,13.5562277 C60.0537643,11.3312748 60.6525987,9.53310891 61.8533503,8.1632599 C63.0525605,6.79341089 64.6440573,6.10810396 66.6270701,6.10810396 C68.6193312,6.10810396 70.2146815,6.79111634 71.4146624,8.15637624 C72.615414,9.52163614 73.2150191,11.3220965 73.2150191,13.5562277 L73.2150191,14.1352203 C73.2150191,16.3792946 72.6177261,18.1828144 71.4223694,19.549604 C70.2270127,20.9148639 68.637828,21.5971114 66.6548153,21.5971114 C64.6540764,21.5971114 63.0525605,20.9148639 61.8533503,19.549604 C60.6525987,18.1828144 60.0537643,16.3792946 60.0537643,14.1352203 L60.0537643,13.5562277 L60.0537643,13.5562277 Z M60.8036561,14.1352203 C60.8036561,16.047349 61.3223376,17.6451238 62.3604713,18.9285446 C63.3978344,20.2112005 64.8290255,20.8529109 66.6548153,20.8529109 C68.4520892,20.8529109 69.8701783,20.2089059 70.9075414,18.920896 C71.9456752,17.6344158 72.4643567,16.0389356 72.4643567,14.1352203 L72.4643567,13.5562277 C72.4643567,11.6892252 71.941051,10.1059827 70.8936688,8.8049703 C69.8470573,7.50319307 68.4243439,6.85306931 66.6270701,6.85306931 C64.8197771,6.85306931 63.3978344,7.50319307 62.3604713,8.8049703 C61.3223376,10.1059827 60.8036561,11.6892252 60.8036561,13.5562277 L60.8036561,14.1352203 L60.8036561,14.1352203 Z M70.4628471,3.48772277 L70.4628471,3.66669802 L69.4902229,3.66669802 L66.9191656,1.10062129 L64.3750828,3.66669802 L63.4587197,3.66669802 L63.4587197,3.43188861 L66.3773631,0.591230198 L67.4887134,0.591230198 L70.4628471,3.48772277 L70.4628471,3.48772277 Z" id="Fill-2" fill="#3DB1FF" sketch:type="MSShapeGroup"></path>
                <path d="M80.0827325,13.8315743 C80.0827325,11.4138787 80.5736688,9.52163614 81.5555414,8.15637624 C82.5381847,6.79111634 83.9370064,6.10810396 85.7535478,6.10810396 C86.9573822,6.10810396 87.9762484,6.36815347 88.8101465,6.88748762 C89.6440446,7.40758663 90.312242,8.12654703 90.8124268,9.04589851 L90.8540446,9.04589851 L90.8540446,-0.208804455 L91.6039363,-0.208804455 L91.6039363,21.3072327 L90.8817898,21.3072327 L90.8540446,19.0042649 L90.8124268,18.9904975 C90.3299682,19.7905322 89.6633121,20.4245941 88.8101465,20.893448 C87.9585223,21.3630668 86.9296369,21.5971114 85.7250318,21.5971114 C83.9185096,21.5971114 82.5266242,20.9378094 81.5493758,19.6176757 C80.5713567,18.2990718 80.0827325,16.4657228 80.0827325,14.121453 L80.0827325,13.8315743 L80.0827325,13.8315743 Z M80.8611401,14.121453 C80.8611401,16.2270891 81.2611338,17.8753441 82.0626624,19.0662178 C82.8641911,20.2570916 84.0811274,20.8529109 85.7119299,20.8529109 C87.045242,20.8529109 88.1365541,20.5653267 88.9843248,19.9909233 C89.8320955,19.415755 90.4548217,18.622604 90.8540446,17.6107054 L90.8540446,10.6184332 C90.4825669,9.53310891 89.9060828,8.63440842 89.1238217,7.92156683 C88.3400191,7.2094901 87.2124841,6.85306931 85.7389045,6.85306931 C84.1088726,6.85306931 82.8880828,7.48713119 82.0773057,8.7560198 C81.265758,10.0249084 80.8611401,11.7167599 80.8611401,13.8315743 L80.8611401,14.121453 L80.8611401,14.121453 Z" id="Fill-3" fill="#3DB1FF" sketch:type="MSShapeGroup"></path>
                <path d="M100.340599,21.5971114 C98.4508408,21.5971114 96.8801529,20.9255718 95.6293057,19.5832574 C94.3784586,18.2417079 93.7534204,16.5169678 93.7534204,14.4113317 L93.7534204,13.5279282 C93.7534204,11.3396881 94.3530255,9.55605446 95.5530064,8.17626238 C96.7529873,6.798 98.2558535,6.10810396 100.063146,6.10810396 C101.786433,6.10810396 103.16907,6.64808911 104.211828,7.72805941 C105.253815,8.80955941 105.77558,10.3010198 105.77558,12.2047351 L105.77558,13.348953 L94.5040828,13.348953 L94.5040828,14.4113317 C94.5040828,16.2500347 95.0551338,17.7835619 96.1580064,19.0103837 C97.2601083,20.2387351 98.6550764,20.8529109 100.340599,20.8529109 C101.230758,20.8529109 102.023038,20.7144728 102.717439,20.4391262 C103.412611,20.16225 104.112408,19.693396 104.816057,19.0317995 L105.219134,19.6115569 C104.626465,20.2456188 103.945166,20.7351238 103.176006,21.0793069 C102.406847,21.4250198 101.461968,21.5971114 100.340599,21.5971114 L100.340599,21.5971114 Z M100.063146,6.85306931 C98.5348471,6.85306931 97.2770637,7.38846535 96.2897962,8.45925743 C95.3025287,9.53081436 94.7214204,10.912901 94.5457006,12.6039876 L105.024146,12.6039876 L105.024146,12.1496658 C105.024146,10.5947228 104.574828,9.3235396 103.676191,8.33535149 C102.777554,7.34716337 101.572949,6.85306931 100.063146,6.85306931 L100.063146,6.85306931 Z" id="Fill-4" fill="#3DB1FF" sketch:type="MSShapeGroup"></path>
                <path d="M69.9125669,34.9628911 C69.9125669,37.4823119 69.1318471,39.5328787 67.5704076,41.1145916 C66.0089682,42.6955396 63.9365541,43.486396 61.3508535,43.486396 C58.7381783,43.486396 56.6464968,42.6955396 55.0765796,41.1145916 C53.5058917,39.5328787 52.7205478,37.4823119 52.7205478,34.9628911 L52.7205478,31.3489678 C52.7205478,28.829547 53.4989554,26.779745 55.0557707,25.1972673 C56.6118153,23.6163193 58.6965605,22.8254629 61.3100064,22.8254629 C63.903414,22.8254629 65.9858471,23.6186139 67.556535,25.204151 C69.1272229,26.790453 69.9125669,28.8387252 69.9125669,31.3489678 L69.9125669,34.9628911 L69.9125669,34.9628911 Z M65.2290191,31.3214332 C65.2290191,29.8498589 64.8929936,28.6643391 64.2209427,27.7633441 C63.5488917,26.8615842 62.5785796,26.4110866 61.3100064,26.4110866 C60.0121465,26.4110866 59.0364395,26.8592896 58.3836561,27.7556955 C57.7308726,28.6528663 57.4040955,29.8414455 57.4040955,31.3214332 L57.4040955,34.9628911 C57.4040955,36.4520569 57.7378089,37.6482847 58.404465,38.5485149 C59.0718917,39.4502748 60.0537643,39.9007723 61.3508535,39.9007723 C62.610949,39.9007723 63.5720127,39.4472153 64.235586,38.542396 C64.8976178,37.636047 65.2290191,36.4436436 65.2290191,34.9628911 L65.2290191,31.3214332 L65.2290191,31.3214332 Z" id="Fill-5" fill="#3DB1FF" sketch:type="MSShapeGroup"></path>
                <path d="M75.9664204,39.6108936 L84.6807325,39.6108936 L84.6807325,43.1965173 L71.2551274,43.1965173 L71.2551274,23.1153416 L75.9664204,23.1153416 L75.9664204,39.6108936" id="Fill-6" fill="#3DB1FF" sketch:type="MSShapeGroup"></path>
                <path d="M102.241917,43.1965173 L97.5583694,43.1965173 L97.5583694,35.1143317 L90.0671592,35.1143317 L90.0671592,43.1965173 L85.3558662,43.1965173 L85.3558662,23.1153416 L90.0671592,23.1153416 L90.0671592,31.5287079 L97.5583694,31.5287079 L97.5583694,23.1153416 L102.241917,23.1153416 L102.241917,43.1965173" id="Fill-7" fill="#3DB1FF" sketch:type="MSShapeGroup"></path>
                <path d="M120.790369,34.9628911 C120.790369,37.4823119 120.01042,39.5328787 118.44821,41.1145916 C116.887541,42.6955396 114.815127,43.486396 112.229427,43.486396 C109.615981,43.486396 107.52507,42.6955396 105.955153,41.1145916 C104.383694,39.5328787 103.599121,37.4823119 103.599121,34.9628911 L103.599121,31.3489678 C103.599121,28.829547 104.377529,26.779745 105.933573,25.1972673 C107.490389,23.6163193 109.575134,22.8254629 112.187809,22.8254629 C114.781987,22.8254629 116.86442,23.6186139 118.435108,25.204151 C120.005796,26.790453 120.790369,28.8387252 120.790369,31.3489678 L120.790369,34.9628911 L120.790369,34.9628911 Z M116.106822,31.3214332 C116.106822,29.8498589 115.771567,28.6643391 115.099516,27.7633441 C114.427465,26.8615842 113.457153,26.4110866 112.187809,26.4110866 C110.89072,26.4110866 109.915013,26.8592896 109.261459,27.7556955 C108.609446,28.6528663 108.282669,29.8414455 108.282669,31.3214332 L108.282669,34.9628911 C108.282669,36.4520569 108.616382,37.6482847 109.283038,38.5485149 C109.950465,39.4502748 110.931567,39.9007723 112.229427,39.9007723 C113.489522,39.9007723 114.450586,39.4472153 115.113389,38.542396 C115.776191,37.636047 116.106822,36.4436436 116.106822,34.9628911 L116.106822,31.3214332 L116.106822,31.3214332 Z" id="Fill-8" fill="#3DB1FF" sketch:type="MSShapeGroup"></path>
                <path d="M44.5996752,23.6828614 C44.5996752,35.4554554 34.9836433,44.9985074 23.1210191,44.9985074 C11.2583949,44.9985074 1.64236306,35.4554554 1.64236306,23.6828614 C1.64236306,11.9095025 11.2583949,2.36721535 23.1210191,2.36721535 C34.9836433,2.36721535 44.5996752,11.9095025 44.5996752,23.6828614" id="Fill-9" fill="#FFD00B" sketch:type="MSShapeGroup"></path>
                <path d="M28.9505987,23.6828614 C28.9505987,26.8791757 26.3410064,29.468198 23.1210191,29.468198 C19.9010318,29.468198 17.2914395,26.8791757 17.2914395,23.6828614 C17.2914395,20.486547 19.9010318,17.8967599 23.1210191,17.8967599 C26.3410064,17.8967599 28.9505987,20.486547 28.9505987,23.6828614" id="Fill-10" fill="#3DB1FF" sketch:type="MSShapeGroup"></path>
                <path d="M17.6290064,21.7370792 L1.73484713,21.7370792 C1.71635032,21.9474134 1.6993949,22.1600421 1.68629299,22.3726708 L17.4417261,22.3726708 C17.4918217,22.1562178 17.5542484,21.9435891 17.6290064,21.7370792 M44.5071911,21.7370792 L44.5064204,21.7370792 C44.5187516,21.8686337 44.5295414,22.000953 44.5395605,22.1325074 C44.5295414,22.0001881 44.5195223,21.8686337 44.5071911,21.7370792" id="Fill-11" fill="#E9BF0D" sketch:type="MSShapeGroup"></path>
                <path d="M23.1210191,21.7370792 L17.6290064,21.7370792 C17.5542484,21.9435891 17.4918217,22.1562178 17.4417261,22.3726708 L23.1210191,22.3726708 L23.1210191,21.7370792" id="Fill-12" fill="#3AA3E9" sketch:type="MSShapeGroup"></path>
                <path d="M0.192675159,21.7370792 L46.0493631,21.7370792 C44.255172,10.7729332 34.6753631,2.40163366 23.1210191,2.40163366 C11.5666752,2.40163366 1.98686624,10.7729332 0.192675159,21.7370792" id="Fill-13" fill="#2ECC71" sketch:type="MSShapeGroup"></path>
                <path d="M23.1926943,2.36721535 L23.193465,2.36721535 L23.1926943,2.36721535" id="Fill-14" fill="#E9E9E9" sketch:type="MSShapeGroup"></path>
                <path d="M23.1210191,2.36721535 L23.1210191,2.40163366 C24.5522102,2.40163366 25.9548854,2.53012871 27.3144013,2.77641089 C25.9810892,2.51406683 24.6030764,2.37256931 23.193465,2.36721535 L23.1926943,2.36721535 L23.1210191,2.36721535" id="Fill-15" fill="#E9BF0D" sketch:type="MSShapeGroup"></path>
                <path d="M46.0393439,21.6781856 C46.0424268,21.6973069 46.0462803,21.7171931 46.0493631,21.7370792 C46.0462803,21.7171931 46.0431975,21.6973069 46.0393439,21.6781856 M46.0300955,21.6200569 C46.0308662,21.6292351 46.0324076,21.6391782 46.0347197,21.6491213 C46.0324076,21.6391782 46.0308662,21.6292351 46.0300955,21.6200569 M46.0200764,21.5611634 C46.0216178,21.5688119 46.0223885,21.5772252 46.0239299,21.5848738 C46.0223885,21.5772252 46.0216178,21.5695767 46.0200764,21.5611634 M46.0100573,21.5060941 C46.010828,21.511448 46.0123694,21.5175668 46.0131401,21.5229208 C46.0123694,21.516802 46.0115987,21.511448 46.0100573,21.5060941 M46.0008089,21.4540842 C46.0008089,21.4563787 46.0015796,21.4594381 46.0023503,21.4617327 C46.0015796,21.4594381 46.0015796,21.4563787 46.0008089,21.4540842" id="Fill-16" fill="#E9E9E9" sketch:type="MSShapeGroup"></path>
                <path d="M44.5395605,22.1325074 C44.5457261,22.212052 44.5503503,22.2923614 44.5557452,22.3726708 L28.8010828,22.3726708 C28.8989618,22.794104 28.9505987,23.2323639 28.9505987,23.6828614 C28.9505987,26.8791757 26.3410064,29.468198 23.1210191,29.468198 L23.1210191,44.9985074 C34.9836433,44.9985074 44.5996752,35.4554554 44.5996752,23.6828614 C44.5996752,23.1604678 44.5780955,22.6441931 44.5395605,22.1325074" id="Fill-17" fill="#E9BF0D" sketch:type="MSShapeGroup"></path>
                <path d="M28.8010828,22.3726708 L23.1210191,22.3726708 L23.1210191,29.468198 C26.3410064,29.468198 28.9505987,26.8791757 28.9505987,23.6828614 C28.9505987,23.2323639 28.8989618,22.794104 28.8010828,22.3726708" id="Fill-18" fill="#3AA3E9" sketch:type="MSShapeGroup"></path>
                <path d="M44.5064204,21.7370792 L28.6130318,21.7370792 C28.6877898,21.9435891 28.7502166,22.1562178 28.8010828,22.3726708 L44.5557452,22.3726708 C44.5503503,22.2923614 44.5457261,22.212052 44.5395605,22.1325074 C44.5295414,22.000953 44.5187516,21.8686337 44.5064204,21.7370792" id="Fill-19" fill="#D6AF0F" sketch:type="MSShapeGroup"></path>
                <path d="M28.6130318,21.7370792 L23.1210191,21.7370792 L23.1210191,22.3726708 L28.8010828,22.3726708 C28.7502166,22.1562178 28.6877898,21.9435891 28.6130318,21.7370792" id="Fill-20" fill="#3896D5" sketch:type="MSShapeGroup"></path>
                <path d="M23.1210191,2.40163366 L23.1210191,21.7370792 L46.0493631,21.7370792 C46.0462803,21.7171931 46.0424268,21.6973069 46.0393439,21.6781856 C46.0378025,21.6682426 46.0362611,21.6582995 46.0347197,21.6491213 C46.0324076,21.6391782 46.0308662,21.6292351 46.0300955,21.6200569 C46.0277834,21.6070545 46.026242,21.5963465 46.0239299,21.5848738 C46.0223885,21.5772252 46.0216178,21.5688119 46.0200764,21.5611634 C46.0177643,21.5489257 46.0154522,21.5351584 46.0131401,21.5229208 C46.0123694,21.5175668 46.010828,21.511448 46.0100573,21.5060941 C46.0077452,21.490797 46.0046624,21.4762649 46.0023503,21.4617327 C46.0015796,21.4594381 46.0008089,21.4563787 46.0008089,21.4540842 C44.3438025,12.0701213 36.9728217,4.64111881 27.5772102,2.82918564 C27.490121,2.81159406 27.4022611,2.79323762 27.3144013,2.77641089 C25.9548854,2.53012871 24.5522102,2.40163366 23.1210191,2.40163366" id="Fill-21" fill="#2DBB69" sketch:type="MSShapeGroup"></path>
            </g>
        </g>
    </g>
</svg>